<svg xmlns="http://www.w3.org/2000/svg" viewBox="0 0 32 32">
  <rect width="32" height="32" fill="none"/>
  
  <path d="M16 28 C20 28 23 26 23 24 S20 20 16 20 S9 20 9 24 S12 28 16 28 Z" fill="#654321"/>
  <path d="M16 26 C19 26 22 24 22 23 S19 20.5 16 20.5 S10 20.5 10 23 S13 26 16 26 Z" fill="#8B4513"/>
  <path d="M16 24 C18 24 20 23 20 22 S18 21 16 21 S12 21 12 22 S14 24 16 24 Z" fill="#A0522D"/>
  
  <path d="M26 10 L10 24 L8.5 22.5 L24.5 8.5 Z" fill="#8B4513"/>
  
  <path d="M26.5 7 L27.5 7 L26.5 9 C26.5 9 26.5 7 26.5 7 Z" fill="#654321"/>
  
  <path d="M7 16 C8 15 10 16 11.5 18 C13 20 13 22 12 23 C11 24 9 23 7.5 21 C6 19 6 17 7 16 Z" fill="#654321"/>
  
  <path d="M10.5 17.5 C11 17 12 17.5 13 18.5 C14 19.5 14.5 21 14 21.5 C13.5 22 12.5 21.5 11.5 20.5 C10.5 19.5 10 18 10.5 17.5 Z" fill="#A0522D"/>
  
  <path d="M8.5 20.5 C9 20 10 20.5 11 21.5 C12 22.5 12.5 24 12 24.5 C11.5 25 10.5 24.5 9.5 23.5 C8.5 22.5 8 21 8.5 20.5 Z" fill="#8B4513"/>
</svg>